<?xml version="1.0" encoding="utf-8"?>
<!-- Generator: Adobe Illustrator 27.5.0, SVG Export Plug-In . SVG Version: 6.00 Build 0)  -->
<svg version="1.1" xmlns="http://www.w3.org/2000/svg" xmlns:xlink="http://www.w3.org/1999/xlink" x="0px" y="0px"
	 viewBox="0 0 600 500" style="enable-background:new 0 0 600 500;" xml:space="preserve">
<g id="BACKGROUND">
	<rect style="fill:#FFFFFF;" width="600" height="500"/>
</g>
<g id="OBJECTS">
	<g>
		<path style="fill:#FFDAE3;" d="M73.921,164.538c37-8,123,66,185,27c107-93,155-110,155-110s33-18,70-9c93,22,87,147,87,147
			s18,233-278,259c-276,20-263-235-263-235S35.921,173.538,73.921,164.538z"/>
		<g>
			<defs>
				<path id="SVGID_1_" d="M73.921,164.538c40.989-13.484,123,66,185,27c107-93,155-110,155-110s33-18,70-9c93,22,87,147,87,147
					s18,233-278,259c-276,20-263-235-263-235S32.91,173.055,73.921,164.538z"/>
			</defs>
			<clipPath id="SVGID_00000008113951508106136760000018315214473783514034_">
				<use xlink:href="#SVGID_1_"  style="overflow:visible;"/>
			</clipPath>
			<path style="clip-path:url(#SVGID_00000008113951508106136760000018315214473783514034_);fill:#FFAEB6;" d="M179.921,314.539
				c76.258,2.38,103,39,156,31s79-67,176-70c31.56-0.976,69,20,69,20s-41,181-274,192c-186,6-260.511-86.484-260.511-86.484
				s3.5-41,34.433-63.286C104.937,320.41,141.278,313.332,179.921,314.539z"/>
		</g>
	</g>
	<g>
		<g>
			<g>
				<path style="fill:#723306;" d="M316.952,275.556c3.657,0.243,7.759,0.237,11.817,0.795c1.884,0.259,3.738,0.716,5.49,1.518
					c1.422,0.651,2.31,1.697,2.562,3.242c0.149,0.917,0.299,1.841,0.34,2.767c0.144,3.252,0.328,6.504,0.29,9.762
					c-0.003,0.279-0.023,0.558-0.018,0.837c0.047,2.872-1.315,4.774-4.013,5.677c-0.878,0.294-1.203,0.751-1.277,1.684
					c-0.289,3.664-0.455,7.331-0.521,11.005c-0.035,1.952-0.135,3.905-0.531,5.825c-0.103,0.498-0.272,0.984-0.43,1.468
					c-0.321,0.98-1.04,1.466-2.018,1.716c-4.321,1.106-8.621,2.294-12.952,3.354c-3.396,0.831-6.673,1.991-9.928,3.236
					c-0.483,0.185-0.921,0.432-1.357,0.701c-0.473,0.292-0.953,0.592-1.465,0.799c-1.307,0.529-2.046,0.159-2.362-1.227
					c-0.538-2.362-0.784-4.773-1.009-7.179c-0.427-4.583-0.773-9.173-1.186-13.758c-0.171-1.897-0.434-3.785-0.636-5.68
					c-0.072-0.678-0.315-1.103-1.077-1.192c-0.592-0.069-1.167-0.3-1.747-0.467c-1.399-0.404-2.112-1.257-2.249-2.789
					c-0.347-3.893-0.654-7.785-0.747-11.692c-0.03-1.253-0.188-2.495-0.091-3.76c0.132-1.725,1.002-2.834,2.51-3.555
					c2.323-1.11,4.751-1.898,7.293-2.277C306.574,275.633,311.544,275.448,316.952,275.556z M311.332,285.722
					c4.97-0.013,9.938-0.044,14.849-0.964c1.459-0.273,2.926-0.524,4.305-1.112c0.471-0.201,0.934-0.41,1.318-0.765
					c1.23-1.136,1.148-2.267-0.253-3.177c-0.627-0.408-1.336-0.634-2.054-0.836c-1.756-0.495-3.545-0.65-5.366-0.71
					c-7.247-0.237-14.487-0.336-21.687,0.749c-2.497,0.376-4.901,1.016-7.055,2.418c-0.85,0.553-1.038,1.137-0.263,2.22
					c0.256,0.358,0.663,0.492,1.05,0.651c1.428,0.586,2.92,0.927,4.443,1.128C304.177,285.796,307.756,285.718,311.332,285.722z"/>
				<g>
					<path style="fill:#3B1502;" d="M315.213,286.409c-4.577-0.051-8.109,0.093-11.634-0.266c-2.272-0.231-4.518-0.53-6.655-1.393
						c-0.901-0.364-1.601-0.917-1.989-1.833c-0.464-1.094-0.321-1.841,0.575-2.618c0.823-0.714,1.823-1.1,2.84-1.438
						c2.925-0.974,5.934-1.516,9.007-1.688c6.839-0.384,13.654-0.128,20.438,0.822c0.871,0.122,1.73,0.341,2.586,0.551
						c0.871,0.213,1.641,0.656,2.337,1.205c1.464,1.157,1.432,2.559-0.084,3.681c-1.019,0.754-2.178,1.232-3.385,1.596
						c-2.103,0.633-4.275,0.889-6.449,1.067C319.93,286.329,317.048,286.407,315.213,286.409z"/>
					<path style="fill:#3B1502;" d="M297.931,300.974c11.489,1.706,22.825,1.808,34.299-0.366c-0.103,1.823-0.2,3.616-0.311,5.408
						c-0.026,0.416-0.181,0.837-0.138,1.241c0.113,1.072-0.521,1.478-1.385,1.772c-1.908,0.651-3.891,0.879-5.881,1.018
						c-5.009,0.349-9.939-0.163-14.7-1.76c-3.74-1.255-7.406-2.727-10.527-5.256C298.651,302.515,297.886,302.084,297.931,300.974z"
						/>
				</g>
			</g>
			<g>
				<path style="fill:#005023;" d="M320.405,240.642c0.333-0.693,0.693-1.374,0.996-2.081c1.407-3.28,2.809-6.561,4.193-9.851
					c2.447-5.818,4.489-11.773,6.022-17.898c1.262-5.042,2.52-10.086,3.722-15.143c0.808-3.4,1.198-6.855,1.022-10.36
					c-0.009-0.176-0.016-0.353-0.011-0.529c0.008-0.267,0.011-0.581,0.254-0.717c0.342-0.193,0.566,0.126,0.779,0.325
					c0.288,0.27,0.564,0.56,0.807,0.871c2.353,3.011,4.195,6.303,5.454,9.917c2.181,6.259,3.824,12.653,4.679,19.231
					c0.552,4.245,0.867,8.508,0.455,12.791c-0.611,6.357-2.026,12.503-4.587,18.386c-2.266,5.205-5.286,9.948-8.508,14.586
					c-3.398,4.892-6.498,9.963-9.172,15.293c-1.106,2.205-2.321,4.355-3.488,6.529c-0.522,0.972-1.308,1.651-2.328,2.058
					c-1.855,0.74-3.661,0.103-4.638-1.641c-0.233-0.416-0.429-0.853-0.621-1.238c-0.408-0.105-0.533,0.184-0.716,0.348
					c-1.849,1.658-4.727,1.759-6.684,0.238c-0.322-0.251-0.532-0.557-0.707-0.929c-1.219-2.59-2.503-5.146-3.965-7.611
					c-2.092-3.527-4.248-7.005-6.849-10.194c-1.926-2.361-3.641-4.876-4.917-7.656c-1.395-3.038-1.998-6.287-2.427-9.573
					c-0.544-4.163-0.493-8.353-0.563-12.539c-0.078-4.634-0.432-9.251-1.516-13.773c-0.658-2.745-1.636-5.397-2.657-8.024
					c-1.475-3.795-2.642-7.67-3.154-11.712c-0.449-3.549-0.465-7.12-0.231-10.691c0.075-1.143,0.227-2.29,0.183-3.429
					c-0.155-3.997,0.547-7.9,1.16-11.818c0.606-3.876,0.975-7.78,1.266-11.693c0.31-4.174,0.555-8.353,1.083-12.509
					c0.094-0.741,0.114-1.492,0.158-2.24c0.073-1.229,0.34-1.791,0.951-1.804c0.979-0.021,1.198,0.795,1.435,1.487
					c0.499,1.458,0.963,2.93,1.385,4.412c1.089,3.824,2.524,7.514,4.241,11.094c2.63,5.481,5.53,10.826,8.177,16.3
					c1.738,3.595,4.332,6.628,6.839,9.704c3.361,4.123,6.279,8.509,7.998,13.598c0.197,0.584,0.428,1.162,0.566,1.76
					c0.685,2.963,1.928,5.767,2.512,8.754c0.596,3.048,0.546,6.14,0.405,9.224c-0.251,5.474,0.125,10.925,0.548,16.376
					c0.06,0.77,0.134,1.539,0.202,2.308C320.24,240.599,320.322,240.62,320.405,240.642z"/>
				<g>
					<path style="fill:#007A07;" d="M303.288,228.806c0.099-8.35,0.896-16.178,2.308-23.957c0.811-4.464,1.412-8.966,1.736-13.501
						c0.157-2.198,0.318-4.393,0.365-6.597c0.086-4.023-0.436-8.002-0.81-11.993c-0.663-7.078-0.783-14.165-0.259-21.259
						c0.344-4.658,0.77-9.311,0.88-13.984c0.008-0.347,0.04-0.715,0.163-1.035c0.474-1.237,1.931-1.446,2.753-0.41
						c0.366,0.461,0.513,1.015,0.626,1.582c0.666,3.327,1.327,6.654,2.008,9.978c1.602,7.81,3.28,15.6,5.682,23.218
						c2,6.343,3.929,12.708,5.806,19.088c1.669,5.674,2.884,11.445,3.239,17.371c0.2,3.353,0.067,6.697-0.273,10.033
						c-0.648,6.362-2,12.608-3.182,18.881c-1.061,5.632-1.932,11.291-2.492,16.996c-0.434,4.427-0.822,8.858-1.166,13.293
						c-0.265,3.424-0.76,6.829-1.484,10.197c-0.29,1.347-0.975,2.454-1.819,3.475c-0.849,1.028-1.495,1-2.373-0.044
						c-0.683-0.811-1.257-1.709-1.704-2.669c-1.226-2.634-2.472-5.261-3.605-7.935c-1.467-3.463-2.302-7.128-3.083-10.787
						c-0.948-4.436-1.961-8.863-2.465-13.385C303.51,239.711,302.798,234.065,303.288,228.806z"/>
					<path style="fill:#007A07;" d="M286.311,166.256c0.209,2.188,0.452,4.374,0.622,6.565c0.553,7.116,0.996,14.242,1.642,21.35
						c0.591,6.5,1.815,12.909,3.202,19.286c1.361,6.254,3.253,12.347,5.405,18.368c1.901,5.321,3.378,10.757,4.204,16.356
						c0.083,0.564,0.118,1.142,0.108,1.712c-0.009,0.514,0.094,1.271-0.445,1.408c-0.65,0.165-0.854-0.622-1.139-1.087
						c-0.228-0.372-0.398-0.788-0.539-1.204c-1.726-5.088-3.514-10.156-5.098-15.292c-1.077-3.493-2.216-6.967-3.187-10.493
						c-1.277-4.637-2.025-9.379-2.877-14.104c-1.563-8.667-1.923-17.422-2.14-26.193c-0.113-4.582-0.256-9.163-0.378-13.745
						c-0.027-0.999,0.058-1.987,0.314-2.95C286.108,166.24,286.21,166.248,286.311,166.256z"/>
					<path style="fill:#007A07;" d="M338.528,191.137c0.503,0.699,0.467,1.381,0.587,2.009c0.955,4.984,1.575,10.003,1.492,15.091
						c-0.088,5.357-0.996,10.598-2.197,15.802c-1.538,6.663-3.691,13.128-6.145,19.504c-2.087,5.422-4.104,10.872-5.8,16.433
						c-0.269,0.883-0.475,1.786-0.701,2.681c-0.184,0.727-0.363,1.46-0.798,2.085c-0.359,0.517-0.674,0.485-0.985-0.066
						c-0.293-0.519-0.334-1.089-0.315-1.667c0.088-2.694,0.419-5.349,1.212-7.94c1.523-4.975,3.567-9.753,5.489-14.577
						c3.414-8.571,6.086-17.361,7.775-26.436c0.867-4.657,1.016-9.361,0.768-14.084c-0.134-2.551-0.257-5.102-0.379-7.654
						C338.514,191.975,338.528,191.63,338.528,191.137z"/>
					<path style="fill:#007A07;" d="M321.957,278.653c-0.483-0.727-0.336-1.47-0.236-2.189c0.271-1.935,0.985-3.744,1.646-5.564
						c1.747-4.809,3.894-9.445,6.147-14.032c2.388-4.863,4.857-9.687,7.165-14.587c2.978-6.32,5.196-12.908,6.475-19.789
						c0.437-2.348,0.418-4.737,0.449-7.117c0.008-0.649-0.018-1.309,0.361-1.972c0.479,0.319,0.429,0.805,0.507,1.2
						c0.768,3.852,0.743,7.712,0.007,11.562c-1.399,7.316-3.898,14.266-7.153,20.947c-4.225,8.672-8.425,17.354-12.306,26.188
						c-0.584,1.329-1.017,2.728-1.811,3.96C322.879,277.769,322.595,278.322,321.957,278.653z"/>
					<path style="fill:#007A07;" d="M287.204,154.206c0.518,0.711,0.762,1.551,1.026,2.379c1.381,4.338,2.169,8.807,2.893,13.287
						c0.949,5.87,1.987,11.725,3.045,17.576c0.697,3.857,1.405,7.711,2.407,11.504c1.296,4.906,3.16,9.619,4.877,14.383
						c0.537,1.491,1.284,2.902,1.681,4.445c0.141,0.548,0.344,1.092,0.116,1.729c-1.052-0.278-1.544-1.132-2.033-1.941
						c-1.004-1.661-1.8-3.434-2.554-5.218c-2.688-6.357-4.513-12.963-5.659-19.765c-1.075-6.387-1.982-12.799-2.834-19.218
						c-0.696-5.24-1.345-10.486-2.433-15.664c-0.242-1.15-0.534-2.29-0.804-3.435C287.023,154.247,287.113,154.226,287.204,154.206z
						"/>
					<path style="fill:#007A07;" d="M303.149,197.083c-0.406-0.026-0.526-0.396-0.712-0.67c-0.469-0.695-0.842-1.444-1.15-2.222
						c-2.271-5.742-4.016-11.632-4.974-17.742c-0.075-0.475-0.101-0.961-0.117-1.442c-0.009-0.257,0.014-0.574,0.356-0.599
						c0.264-0.019,0.32,0.249,0.388,0.457c0.708,2.173,1.443,4.338,2.118,6.521c1.156,3.737,2.283,7.483,3.407,11.23
						c0.391,1.304,0.79,2.611,0.847,3.988C303.32,196.771,303.344,196.951,303.149,197.083z"/>
				</g>
			</g>
		</g>
		<g>
			<g>
				<g>
					<path style="fill:#82CDF7;" d="M288.717,457.319c0.276,1.031-0.658,1.683-3.202,2.94c-6.959,3.439-13.21,6.168-19.964,8.951
						c-2.395,0.987-1.433,0.466-1.574-2.204c-0.535-10.098-0.772-20.204-0.7-30.315c0.009-1.284-0.595-2.231-0.086-3.342
						c0.508-1.107,2.863-1.806,3.971-2.276c6.134-2.604,11.657-4.796,17.862-7.235c2.907-1.143,3.24-1.725,3.273,1.342
						C288.363,431.201,289.068,452.2,288.717,457.319z"/>
					<path style="fill:#FFFFFF;" d="M287.727,422.709c0.255,0.129,0.268,0.49,0.022,0.636c-0.695,0.416-1.415,0.608-2.104,0.861
						c-6.817,2.864-15.136,6.725-21.617,9.107c-2.107,0.99-0.517,0.264-2.763-0.521c-5.659-1.978-11.325-3.935-16.968-5.96
						c-1.486-0.533-2.991-1.014-4.484-1.53c-0.291-0.101-0.622-0.163-0.832-0.626c1.747-0.75,3.473-1.533,5.23-2.24
						c6.324-2.543,12.668-5.035,18.979-7.608c1.296-0.528,2.4-0.539,3.734-0.013c5.928,2.339,7.938,2.844,17.926,6.655
						C286.2,421.858,286.546,422.109,287.727,422.709z"/>
					<path style="fill:#E95151;" d="M238.773,424.766c2.962,1.42,15.923,5.812,23.18,8.344c1.298,0.453,1.233-0.151,1.294,1.308
						c0.183,4.37,0.328,8.741,0.502,13.112c0.267,6.689,0.218,13.383,0.292,20.075c0.018,1.647,0.43,2.402-1.171,1.785
						c-3.047-1.174-6.949-2.797-9.973-4.028c-4.291-1.747-8.549-3.577-12.854-5.288c-0.955-0.379-1.341-0.461-1.346-1.425
						c-0.022-4.585-0.033-9.612-0.078-14.196C238.572,439.657,238.673,426.505,238.773,424.766z"/>
				</g>
				<path style="fill:#FFFFFE;" d="M284.928,454.885l-5.665-21.945l-5.463,2.106l-3.56,25.588l3.949-1.901l0.769-5.557l5.405-1.642
					l0.007-0.007l1.227,4.669L284.928,454.885z M275.494,449.309l1.481-10.699l2.482,9.443L275.494,449.309z"/>
			</g>
			<g>
				<g>
					<path style="fill:#E95151;" d="M308.039,30.743c4.251-0.047,10.242,0.398,16.149,1.4c7.517,1.276,14.534,3.699,21.117,7.128
						c6.87,3.579,12.689,8.123,17.422,13.729c3.66,4.335,6.11,9.11,7.181,14.455c0.835,4.17,0.474,8.259-0.46,12.363
						c-1.447,6.357-4.652,12.034-8.922,17.287c-2.203,2.709-4.976,4.967-7.838,7.135c-9.69,7.342-20.978,11.777-33.493,13.913
						c-3.67,0.626-7.395,0.977-11.151,0.846c-0.343-0.012-0.688,0.008-1.031-0.009c-1.059-0.052-1.822,0.255-2.501,1.051
						c-5.571,6.523-12.27,12.04-19.908,16.7c-2.869,1.751-5.945,3.165-9.269,4.141c-0.493,0.145-1.065,0.513-1.547,0.033
						c-0.423-0.42-0.214-0.928-0.023-1.387c0.833-2.005,1.833-3.956,2.58-5.991c1.39-3.788,2.573-7.61,2.963-11.587
						c0.176-1.792,0.246-3.583,0.07-5.377c-0.083-0.849-0.435-1.333-1.5-1.66c-6.689-2.053-12.883-4.892-18.135-9.116
						c-2.501-2.011-4.612-4.316-6.486-6.782c-2.465-3.243-4.666-6.611-6.228-10.275c-1.171-2.748-1.793-5.607-2.264-8.495
						c-1.478-9.063,1.183-17.292,6.514-25.082c4.218-6.165,10.161-10.724,16.954-14.527c8.393-4.698,17.638-7.571,27.373-9.27
						C299.118,30.752,302.69,30.689,308.039,30.743z"/>
					<g>
						<path style="fill:#FFFFFF;" d="M321.233,76.721c-5.46-0.018-10.918-0.14-16.376-0.212c-0.574-0.008-1.147-0.015-1.699-0.196
							c-0.916-0.3-1.384-0.97-1.358-1.941c0.021-0.791,0.58-1.452,1.475-1.659c0.644-0.149,1.303-0.228,1.971-0.215
							c9.378,0.19,18.759,0.157,28.136,0.452c1.417,0.045,2.835,0.037,4.252,0.083c0.601,0.02,1.21,0.065,1.795,0.189
							c0.918,0.194,1.458,0.827,1.506,1.637c0.054,0.913-0.449,1.639-1.362,1.945c-0.695,0.233-1.419,0.249-2.146,0.233
							c-4.975-0.106-9.951-0.212-14.926-0.315C322.077,76.713,321.655,76.721,321.233,76.721z"/>
						<path style="fill:#FFFFFF;" d="M295.171,64.65c-6.689,0.073-11.541,0.129-16.394,0.177c-0.602,0.006-1.206-0.014-1.807-0.047
							c-0.62-0.034-1.173-0.261-1.643-0.654c-0.99-0.827-0.89-2.136,0.211-2.812c0.633-0.389,1.338-0.491,2.076-0.497
							c2.682-0.022,5.365-0.064,8.047-0.087c7.505-0.062,15.01-0.153,22.516-0.109c0.511,0.003,1.029,0.005,1.532,0.079
							c1.194,0.176,1.964,1.053,1.887,2.089c-0.077,1.021-0.891,1.738-2.075,1.813c-0.33,0.021-0.663,0.015-0.994,0.013
							C303.462,64.595,298.399,64.597,295.171,64.65z"/>
						<path style="fill:#FFFFFF;" d="M323.181,81.724c3.969,0.064,8.191,0.132,12.413,0.199c0.422,0.007,0.842,0.011,1.247,0.166
							c0.859,0.328,1.41,1.135,1.341,1.985c-0.072,0.882-0.695,1.555-1.62,1.761c-0.386,0.086-0.774,0.106-1.168,0.096
							c-7.78-0.18-15.562-0.203-23.343-0.199c-0.783,0-1.571-0.026-2.347-0.121c-1.036-0.127-1.596-0.632-1.782-1.475
							c-0.283-1.281,0.371-2.206,1.706-2.371c0.417-0.052,0.843-0.04,1.265-0.04C314.905,81.723,318.917,81.724,323.181,81.724z"/>
						<path style="fill:#FFFFFF;" d="M288.065,80.179c3.733,0.178,7.465,0.356,11.198,0.531c0.367,0.017,0.721,0.087,1.053,0.228
							c0.889,0.378,1.361,1.307,1.157,2.241c-0.191,0.872-0.889,1.417-1.889,1.43c-2.443,0.03-4.879-0.107-7.318-0.235
							c-2.858-0.149-5.722-0.199-8.579-0.36c-2.286-0.129-4.58-0.076-6.86-0.31c-0.547-0.056-1.065-0.182-1.546-0.446
							c-0.636-0.348-0.946-0.877-0.95-1.578c-0.004-0.695,0.491-1.04,1.039-1.31c0.632-0.311,1.333-0.343,2.028-0.347
							c2.863-0.019,5.727-0.012,8.589,0.097c0.692,0.026,1.386,0.004,2.079,0.004C288.065,80.142,288.065,80.161,288.065,80.179z"/>
						<path style="fill:#FFFFFF;" d="M281.695,70.862c3.518,0.112,6.108,0.189,8.696,0.28c0.569,0.02,1.144,0.035,1.682,0.27
							c0.849,0.37,1.282,1.064,1.225,1.949c-0.046,0.71-0.587,1.472-1.507,1.625c-0.57,0.095-1.133,0.142-1.704,0.129
							c-2.8-0.066-5.6-0.156-8.4-0.206c-2.138-0.038-4.277-0.028-6.416-0.039c-0.789-0.004-1.538-0.145-2.283-0.435
							c-1.143-0.445-1.133-2.441-0.265-2.98c0.661-0.41,1.354-0.6,2.13-0.597C277.444,70.867,280.034,70.862,281.695,70.862z"/>
						<path style="fill:#FFFFFF;" d="M298.531,88.91c3.238,0.089,5.586,0.151,7.934,0.219c0.634,0.018,1.266,0.074,1.855,0.325
							c0.64,0.273,1.138,0.667,1.133,1.426c-0.006,0.772-0.447,1.379-1.242,1.645c-0.631,0.211-1.299,0.229-1.96,0.252
							c-1.085,0.037-2.166-0.053-3.249-0.093c-2.587-0.096-5.176-0.167-7.765-0.217c-1.086-0.021-2.164-0.102-3.244-0.201
							c-0.399-0.037-0.77-0.143-1.093-0.373c-0.559-0.397-0.799-0.935-0.7-1.601c0.095-0.641,0.483-1.041,1.105-1.26
							c0.351-0.124,0.709-0.12,1.069-0.12C294.723,88.91,297.072,88.91,298.531,88.91z"/>
						<path style="fill:#FFFFFF;" d="M324.892,64.148c-1.996,0.032-3.83-0.073-5.664-0.143c-0.54-0.02-1.084-0.073-1.613-0.176
							c-0.937-0.181-1.475-0.779-1.515-1.605c-0.044-0.896,0.423-1.545,1.358-1.825c0.341-0.102,0.708-0.178,1.063-0.179
							c3.975-0.009,7.949-0.003,11.916,0.294c0.824,0.062,1.519,0.347,2.013,1.008c0.594,0.793,0.405,1.664-0.47,2.161
							c-0.451,0.256-0.948,0.362-1.469,0.376C328.586,64.11,326.662,64.239,324.892,64.148z"/>
					</g>
				</g>
				<g>
					<path style="fill:#FFFFFF;" d="M353.138,234.095c-7.241,0.216-14.14,0.054-20.991-1.161
						c-8.737-1.549-16.964-4.412-24.425-9.281c-4.369-2.851-8.169-6.282-10.603-11.005c-1.685-3.269-2.513-6.781-2.74-10.43
						c-0.257-4.14,1.102-7.883,3.121-11.389c4.553-7.909,11.009-13.683,19.515-17.108c6.632-2.671,13.522-4.282,20.605-5.144
						c6.644-0.809,13.223-0.477,19.817,0.68c5.976,1.049,11.37,3.392,16.377,6.681c4.631,3.042,7.762,7.417,10.176,12.307
						c1.723,3.49,2.569,7.212,2.732,11.133c0.203,4.874-0.544,9.626-1.471,14.366c-0.289,1.48,0.096,2.646,1.134,3.661
						c0.968,0.948,2.076,1.71,3.228,2.413c1.666,1.018,3.418,1.874,5.171,2.726c0.334,0.162,0.685,0.303,0.987,0.511
						c0.645,0.444,0.687,0.985,0.065,1.466c-0.472,0.365-1.019,0.646-1.557,0.914c-4.515,2.24-9.272,3.783-14.178,4.888
						c-6.801,1.532-13.677,2.606-20.611,3.294C357.273,233.837,355.046,233.954,353.138,234.095z"/>
					<g>
						<path style="fill:#10A0DD;" d="M352.803,211.528c0.071-0.618-0.235-1.031-0.393-1.473c-0.814-2.274-1.142-4.591-0.588-6.97
							c0.589-2.528,1.936-4.585,4.112-6.01c2.535-1.661,5.167-1.889,7.809-0.202c2.428,1.55,3.705,4.422,3.147,7.306
							c-0.816,4.215-3.317,7.272-6.83,9.585c-0.303,0.2-0.63,0.364-0.941,0.541c0.037,0.42,0.374,0.543,0.613,0.73
							c2.556,1.999,5.396,3.347,8.655,3.699c1.356,0.146,2.688,0.032,3.968-0.482c0.113-0.045,0.233-0.074,0.35-0.111
							c1.025-0.331,1.683-0.185,2.06,0.458c0.352,0.6,0.198,1.248-0.464,1.987c-0.448,0.5-0.995,0.837-1.638,1.022
							c-1.547,0.445-3.122,0.604-4.721,0.407c-4.763-0.588-8.747-2.751-12.11-6.102c-0.558-0.556-1.106-0.831-1.895-0.895
							c-3.067-0.251-5.702-1.581-8.103-3.433c-0.483-0.372-0.955-0.757-1.4-1.112c-0.326,0.096-0.428,0.328-0.565,0.526
							c-2.932,4.245-7.087,6.357-12.114,6.953c-1.589,0.189-3.169,0.168-4.75-0.103c-3.993-0.686-6.624-3.125-8.471-6.567
							c-1.473-2.744-2.049-5.653-1.537-8.751c0.066-0.402,0.074-0.817,0.171-1.21c0.118-0.481-0.062-0.673-0.52-0.74
							c-1.099-0.163-2.136-0.531-3.111-1.057c-2.775-1.497-4.063-4.392-3.333-7.445c0.348-1.454,1.157-2.597,2.348-3.47
							c0.761-0.558,1.618-0.955,2.509-1.251c0.925-0.307,1.709,0.021,2.077,0.786c0.383,0.797,0.078,1.65-0.811,2.163
							c-0.422,0.244-0.873,0.441-1.322,0.634c-2.292,0.986-2.147,4.339-0.32,5.456c0.888,0.543,1.837,0.852,2.855,1.022
							c0.596,0.1,0.869-0.12,1.102-0.663c1.95-4.54,5.195-7.972,9.334-10.559c3.319-2.075,6.959-3.166,10.915-3.04
							c1.331,0.043,2.583,0.354,3.711,1.079c2.381,1.53,3.411,4.232,2.766,7.282c-0.177,0.837-0.4,1.664-0.606,2.495
							c-0.097,0.391-0.051,0.698,0.338,0.938c2.947,1.815,3.259,4.553,2.637,7.61c-0.278,1.367-0.806,2.651-1.352,3.924
							c-0.193,0.451-0.28,0.814,0.094,1.222C348.197,209.585,350.287,210.823,352.803,211.528z M329.74,214.799
							c4.869-0.162,8.965-1.812,11.736-6.071c0.387-0.594,0.422-1.019,0.046-1.636c-1.399-2.29-1.791-4.771-1.223-7.402
							c0.146-0.676,0.25-1.361,0.353-2.044c0.126-0.841,0.114-0.833-0.718-1.074c-0.397-0.116-0.799-0.142-1.207-0.158
							c-1.292-0.049-2.503,0.323-3.685,0.764c-4.442,1.654-9.001,2.849-13.686,3.554c-0.522,0.078-0.776,0.246-0.893,0.781
							c-0.708,3.247-0.34,6.283,1.474,9.145C323.77,213.55,326.362,214.87,329.74,214.799z M322.038,197.302
							c1.224-0.168,2.193-0.464,3.155-0.776c2.206-0.717,4.389-1.516,6.618-2.151c2.978-0.848,5.984-1.637,9.134-0.988
							c0.303,0.062,0.579,0.059,0.669-0.317c0.285-1.184,0.725-2.343,0.651-3.587c-0.085-1.432-1.003-2.529-2.397-2.895
							c-1.041-0.273-2.096-0.246-3.152-0.093c-5.462,0.795-9.677,3.636-12.993,7.939
							C323.083,195.266,322.487,196.135,322.038,197.302z M355.44,206.345c-0.082,1.403,0.168,2.829,0.696,4.22
							c0.21,0.553,0.505,0.655,1.022,0.443c1.443-0.59,2.82-1.306,3.911-2.43c1.45-1.493,2.443-3.25,2.633-5.37
							c0.151-1.688-0.712-3.161-2.217-3.871c-1.195-0.564-2.739-0.215-3.923,0.884c-0.453,0.42-0.8,0.915-1.098,1.453
							C355.669,203.104,355.44,204.658,355.44,206.345z M343.835,200.377c-0.08,0.658-0.22,1.324,0.224,2.11
							C344.289,201.613,344.169,200.981,343.835,200.377z"/>
					</g>
				</g>
			</g>
		</g>
		<g>
			<g>
				<g>
					<path style="fill:#D38240;" d="M222.576,181.219c-2,2.167-8.5,4.333-9.667,4.167c-26.289,0.578-36.545-7.174-38-15.458
						c-1.545-8.793,0.394-33.051,0.5-32.625c0.333,1.333,3.097,3.293,7,8.875c20.375,24.125,36.666,11.711,36.833,11.542
						c0.362-0.365,2.667-5.167,3.833-8.167C223.622,149.774,223.387,180.168,222.576,181.219z"/>
				</g>
				<g>
					<path style="fill:#82CDF8;" d="M249.071,281.766c-0.022,0.477-0.048,0.715-0.042,0.953c0.118,4.701-0.413,9.355-1.079,13.993
						c-1.195,8.331-1.822,16.686-1.246,25.102c0.127,1.855,0.458,3.676,0.949,5.471c0.287,1.049,0.174,1.359-0.823,1.662
						c-7.886,2.393-15.584,5.379-23.542,7.541c-5.475,1.488-10.894,1.265-16.253-0.691c-3.529-1.287-7.036-2.615-10.503-4.067
						c-7.438-3.115-14.982-5.919-23.089-6.736c-4.83-0.487-9.618-0.449-14.363,0.926c-7.534,2.183-14.507,5.436-20.752,10.212
						c-3.5,2.676-6.378,5.876-8.475,9.766c-0.289,0.537-0.486,1.315-1.274,1.226c-0.838-0.095-0.969-0.921-1.095-1.563
						c-0.65-3.31-1.066-6.636-0.844-10.032c0.201-3.075,0.811-6.092,1.139-9.142c0.589-5.478,1.059-10.959,0.641-16.502
						c-0.54-7.155-1.176-14.3-1.911-21.435c-0.53-5.145-1.474-10.235-2.435-15.317c-0.816-4.315-1.622-8.632-2.458-12.943
						c-1.039-5.364-2.056-10.734-3.176-16.082c-0.611-2.915-1.835-5.657-2.643-8.522c-1.791-6.346-3.397-12.748-4.026-19.316
						c-0.682-7.12,0.254-14.12,2.372-20.958c1.146-3.7,2.6-7.246,4.851-10.44c1.902-2.698,4.268-4.944,6.702-7.128
						c2.585-2.321,5.413-4.314,8.406-6.079c1.596-0.941,3.135-1.979,4.729-2.924c0.44-0.261,0.572-0.599,0.678-1.042
						c0.375-1.568,0.9-3.092,1.477-4.595c0.296-0.772,0.702-1.501,1.04-2.257c0.315-0.706,0.769-0.868,1.522-0.62
						c1.807,0.594,3.643,1.098,5.462,1.656c4.059,1.246,8.197,2.197,12.29,3.314c6.074,1.659,12.224,2.988,18.357,4.39
						c0.38,0.087,0.769,0.21,1.15,0.201c1.718-0.039,2.797,0.87,3.88,2.127c2.916,3.385,6.275,6.316,10.3,8.312
						c4.682,2.321,9.668,3.327,14.911,2.741c1.508-0.169,2.953-0.634,4.401-1.067c0.535-0.16,0.95-0.504,1.291-0.925
						c0.522-0.644,1.067-1.278,1.514-1.973c2.981-4.641,5.163-9.614,6.225-15.055c0.252-1.289,0.557-2.577,0.961-3.825
						c0.422-1.303,1.42-2.193,2.53-2.939c0.477-0.321,1.03-0.25,1.565-0.159c1.37,0.234,2.612,0.776,3.756,1.56
						c2.063,1.416,3.872,3.122,5.616,4.902c2.779,2.834,5.22,5.943,7.3,9.318c2.38,3.863,4.967,7.594,7.189,11.556
						c4.646,8.284,8.203,17.041,11.424,25.954c2.585,7.153,4.067,14.554,5.204,22.041c0.953,6.276,1.767,12.571,1.699,18.932
						c-0.09,8.338-1.116,16.55-3.717,24.512c-1.035,3.17-2.332,6.218-4.546,8.784c-0.318,0.369-0.619,0.759-0.974,1.091
						c-2.14,2-4.612,2.238-7.102,0.686c-1.041-0.649-1.955-1.449-2.803-2.339C250.734,283.296,249.975,282.627,249.071,281.766z"/>
					<path style="fill:#10A0DD;" d="M128.567,170.075c0,0-19.853,6.243-24.451,31.001c-1.061,10.257,2.476,37.491,26.337,69.452
						c22.165,31.362,29.475,27.589,29.475,27.589s17.921-0.707,34.427-38.672c9.668-30.183-2.122-39.143-2.122-39.143
						s-0.472,28.532-6.838,24.995c-13.441-3.065-15.862-13.469-9.486-28.744c-16.5,18-14.566,24.028-14.566,24.028l-7.074-19.572
						L128.567,170.075z"/>
					<path style="fill:#10A0DD;" d="M127.535,329.827c4.716-11.319,38.672-18.393,38.672-18.393s19.807-3.773,33.012,4.009
						c6.131,4.716,12.026,7.781,20.751,8.961c8.725,1.179,26.174-8.253,26.882-5.423c2.122,7.074,1.415,13.677,1.415,13.677
						l-30.419,8.253c0,0-34.767-18.55-54.575-16.192c-26.028,3.099-35.738,24.445-35.738,24.445S122.819,341.146,127.535,329.827z"
						/>
					<path style="fill:#10A0DD;" d="M237.642,224.574L234.34,236.6c0,0-1.651,9.432,7.074,31.362s17.214,21.222,17.214,21.222
						s15.563-2.122,12.969-45.038c-3.773-44.803-23.188-66.093-23.188-66.093s-2.691,5.238-2.5,9
						c0.75,14.75,12.247,36.342,12.247,36.342s-0.707,23.58-9.904,24.523c-9.196,0.943-10.14-12.262-10.14-12.262L237.642,224.574z"
						/>
					<g>
						<path style="fill:#F5B888;" d="M206.534,163.427c5.959,0.878,9.376-1.685,9.376-1.685s6.937-4.875,8.125-12.688
							c3.417-10.75,5.187-16.125,5.874-33.003c0.533-13.087-3.917-26.5-3.917-26.5s-3.75-13.75-21.75-13.75
							c-20.5,2.5-26,15.5-26.75,17.25c-2.25,3.25-3.083,19.333-3.083,19.333l1.125,26.417c0,0,7,8.375,15.75,16.375
							C194.534,158.177,201.335,162.661,206.534,163.427z"/>
					</g>
					<g>
						<path style="fill:#002D8C;" d="M220.159,158.552c0.263,8.106,0.658,18.545,4.704,25.573c0.369,0.642,0.794,1.295,1.443,1.651
							c0.169,0.093,0.36,0.171,0.469,0.33c0.056,0.082-1.633,4.489-1.748,4.985c-0.679,2.928-1.366,5.855-2.062,8.78
							c-1.428,5.998-2.617,12.054-3.887,18.09c-0.569,2.702-1.907,5.03-3.44,7.265c-0.544,0.793-0.977,0.867-1.818,0.452
							c-0.505-0.249-0.868-0.669-1.258-1.058c-1.761-1.757-3.205-3.781-4.793-5.683c-6.812-8.163-13.613-16.335-20.418-24.504
							c-3.518-4.223-6.216-8.934-8.446-13.944c-1.731-3.887-2.193-4.08-2.996-8.269c-0.343-1.794,0.5-14.333,0.364-22.924
							c-0.007-0.466,0.016-1.082,0.68-1.175c0.549-0.077,1.961-0.653,2.206-0.317c3.62,4.94,6.74,9.266,11.75,12.75
							c3.676,2.555,7.839,4.93,12.213,5.805c3.03,0.606,7.347,0.436,10.121-0.805C215.41,164.583,219.659,161.052,220.159,158.552z"
							/>
						<g>
							<path style="fill:#001C63;" d="M176.159,152.865c0.32-0.595-0.17-6.392,0.25-5.875c0.068,0.084,1.01,1.374,1.051,1.475
								c1.664,2.3,2.704,3.457,4.845,5.497c2.433,2.319,5.005,4.49,7.701,6.51c2.014,1.509,2.49,3.461,1.236,5.58
								c-0.73,1.233-1.325,3.069-2,4.333c-0.311,0.582-1.101-1.249-1.632-1.652c-1.854-1.406-3.508-3.03-5.068-4.737
								c-2.419-2.647-3.222-3.353-5.299-6.278C176.494,156.665,176.222,156.552,176.159,152.865z"/>
							<path style="fill:#001C63;" d="M210.103,209.359c-0.757-0.015-1.554-0.223-2.301-0.6c-1.538-0.776-3.106-1.671-4.122-2.995
								c-1.861-2.425-3.032-5.241-3.093-8.379c-0.02-1.022,0.809-1.564,1.807-1.33c0.939,0.22,1.743,0.675,2.374,1.412
								c0.86,1.005,1.714,2.016,2.568,3.027c1.834,2.17,2.772,2.173,4.524-0.028c0.514-0.646,0.962-1.344,1.448-2.012
								c1.05-1.443,2.554-1.872,3.877-1.112c1.258,0.722,1.769,2.233,1.053,3.758c-1.097,2.334-2.031,4.781-4.024,6.587
								C213.056,208.732,211.75,209.331,210.103,209.359z"/>
							<path style="fill:#001C63;" d="M211.823,192.913c-2.096-0.087-4.195-0.194-6.254-0.614c-1.676-0.342-1.935-1.083-0.892-2.395
								c1.167-1.468,2.379-2.9,3.549-4.365c0.663-0.83,1.394-1.19,2.442-0.671c0.655,0.324,1.4,0.312,2.118,0.235
								c2.115-0.225,4.182,0.072,6.247,0.495c1.211,0.248,2.271,0.705,2.546,2.026c0.289,1.387-0.503,2.359-1.596,3.013
								C217.239,192.28,215.141,193.033,211.823,192.913z"/>
							<path style="fill:#001C63;" d="M223.206,173.153c-3.03,1.75-7.47,2.645-10.784,3.632c0.096-1.189-3.587-1.521-3.231-2.275
								c0.323-0.684,0.818-3.684,1.667-4c0.855-0.318,5.252,0.5,6.176,0.418c0.764-0.069,2.605-1.977,3.375-2
								c0.36-0.011,0.695,2.332,0.953,2.571C221.885,171.983,222.422,172.452,223.206,173.153z"/>
							<path style="fill:#001C63;" d="M186.13,176.185c-0.073,0.986-0.141,1.973-0.221,2.958c-0.028,0.352-0.177,0.642-0.543,0.744
								c-0.359,0.1-0.664-0.034-0.86-0.333c-0.963-1.473-2.206-2.758-2.933-4.388c-0.318-0.714-0.554-1.449-0.392-2.241
								c0.164-0.797,0.8-1.177,1.464-0.752c1.204,0.77,2.34,1.651,3.279,2.75C186.243,175.296,186.162,175.75,186.13,176.185z"/>
						</g>
					</g>
					<g>
						<path style="fill:#F5B888;" d="M183.134,411.971c-2.928,0.242-4.905,0.359-6.886,0.139c-0.148-0.016-0.296-0.024-0.445-0.034
							c-3.068-0.217-3.872-1.984-3.395-4.52c0.585-3.115,1.184-6.227,1.739-9.348c0.425-2.39,0.585-4.811,0.663-7.234
							c0.053-1.631,0.155-1.847,1.75-2.248c0.862-0.217,1.745-0.39,2.628-0.478c6.515-0.644,12.941-1.877,19.399-2.896
							c3.916-0.618,7.845-1.133,11.787-1.542c1.348-0.14,1.735,0.149,1.933,1.614c0.422,3.117,0.411,6.231-0.38,9.297
							c-0.653,2.533-0.984,5.165-2.324,7.491c-1.009,1.75-2.288,3.228-4.054,4.241c-3.787,2.17-7.902,3.42-12.172,4.128
							C189.666,411.196,185.953,411.851,183.134,411.971z"/>
						<g>
							<path style="fill:#002D8C;" d="M206.035,399.165c-0.324-3.305-0.221-6.625-0.705-9.916c-0.116-0.791-0.003-1.597,0.112-2.395
								c0.157-1.087,0.097-1.142-0.943-0.917c-2.767,0.599-5.527,1.232-8.296,1.822c-6.403,1.364-12.874,2.015-19.422,1.751
								c-2.318-0.094-4.574,0.185-6.824,0.735c-5.671,1.386-10.669,4.024-15.034,7.889c-1.034,0.916-2.106,1.76-3.009,2.847
								c-1.061,1.278-2.581,2.065-4.106,2.73c-2.315,1.01-4.736,1.656-7.25,1.931c-2.423,0.265-4.667-0.427-6.827-1.396
								c-5.46-2.448-9.951-6.147-13.86-10.652c-4.118-4.745-6.41-10.292-7.634-16.36c-1.561-7.739-1.152-15.439,0.743-23.043
								c2.086-8.373,6.713-15.141,13.436-20.549c4.769-3.836,9.795-7.242,15.341-9.839c4.814-2.255,9.843-3.782,15.13-4.538
								c8.241-1.178,16.047,0.487,23.698,3.327c6.527,2.423,12.75,5.477,18.739,9.032c4.178,2.48,8.364,4.956,12.805,6.963
								c0.935,0.423,1.737,0.43,2.743,0.148c2.465-0.689,4.977-1.239,7.496-1.703c4.27-0.787,8.396-2.081,12.53-3.354
								c6.227-1.918,12.446-3.86,18.762-5.481c7.917-2.031,15.881-3.872,23.811-5.845c7.361-1.831,14.72-3.687,22.007-5.786
								c6.16-1.775,12.344-3.466,18.508-5.225c5.747-1.641,11.519-3.211,17.341-4.594c5.708-1.356,11.26-0.705,16.752,0.962
								c4.38,1.329,8.496,3.219,11.924,6.36c1.9,1.741,3.624,3.634,4.906,5.888c1.426,2.505,2.961,4.95,3.851,7.73
								c2.033,6.349,1.31,12.543-0.863,18.702c-1.574,4.46-4.127,8.329-7.128,11.901c-3.267,3.889-6.725,7.613-10.798,10.698
								c-2.897,2.194-5.905,4.22-8.983,6.16c-8.382,5.282-17.634,8.607-26.768,12.235c-8.506,3.379-17.185,6.186-26.054,8.397
								c-5.701,1.421-11.517,2.308-17.291,3.385c-7.403,1.381-14.833,2.6-22.271,3.778c-5.695,0.902-11.357,2.015-17.062,2.846
								c-5.969,0.869-11.909,2.027-17.958,2.243c-3.364,0.12-6.731,0.151-10.097,0.182c-1.044,0.01-1.179-0.138-1.285-1.202
								c-0.1-1.009-0.143-2.026-0.158-3.04C206.016,402.37,206.035,400.767,206.035,399.165z"/>
							<path style="fill:#001C63;" d="M210.881,382.63c-0.31-0.03-0.609-0.025-0.889-0.095c-0.693-0.173-1.297-0.493-1.46-1.265
								c-0.15-0.709,0.214-1.215,0.749-1.628c0.776-0.599,1.627-1.078,2.497-1.518c3.751-1.897,7.23-4.235,10.773-6.48
								c4.535-2.874,8.88-6.016,13.308-9.042c0.965-0.66,1.899-1.369,2.816-2.095c0.787-0.623,0.759-0.865-0.191-1.273
								c-1.701-0.731-3.411-1.448-5.145-2.098c-6.431-2.412-12.458-5.556-17.912-9.759c-1.004-0.774-2.03-1.518-3.044-2.279
								c-0.611-0.458-1.008-1.038-1.095-1.823c-0.131-1.175,0.089-1.561,1.251-1.922c1.07-0.332,2.162-0.594,3.227-0.94
								c0.552-0.179,1.031-0.15,1.541,0.116c4.332,2.261,8.909,3.954,13.448,5.73c2.543,0.995,5.104,1.944,7.573,3.119
								c2.516,1.198,4.907,2.605,7.085,4.348c0.507,0.406,0.906,0.497,1.389,0.025c0.488-0.477,1.004-0.925,1.5-1.394
								c4.496-4.258,8.986-8.523,13.491-12.771c0.886-0.836,1.809-1.637,2.755-2.404c3.409-2.759,6.786-5.565,10.66-7.681
								c0.991-0.541,2.011-0.994,3.131-1.186c0.83-0.142,1.663-0.141,2.46,0.136c1.436,0.499,2.013,1.521,1.841,2.975
								c-0.283,2.39-1.226,4.448-2.69,6.368c-5.491,7.202-11.988,13.318-19.441,18.448c-3.936,2.709-7.845,5.47-11.942,7.923
								c-5.271,3.156-10.318,6.675-15.689,9.66c-3.367,1.871-6.818,3.588-10.36,5.11c-1.88,0.808-3.715,1.717-5.672,2.352
								C214.889,381.921,212.91,382.407,210.881,382.63z"/>
							<path style="fill:#001C63;" d="M161.908,418.365c-2.622-0.005-4.906-1.631-5.668-4.105c-1.005-3.26-1.349-6.574-0.279-9.912
								c0.955-2.977,2.15-5.851,3.788-8.52c2.219-3.617,5.252-6.382,9.037-8.283c2.667-1.34,5.438-1.38,8.211-0.309
								c1.464,0.565,1.764,1.257,1.274,2.739c-1.481,4.48-2.017,9.114-2.234,13.795c-0.077,1.67,0.316,3.291,0.729,4.896
								c0.21,0.818,0.68,1.483,1.285,2.085c0.883,0.879,0.798,1.255-0.371,1.785c-1.019,0.462-2.056,0.886-3.098,1.292
								c-3.172,1.237-6.398,2.335-9.487,3.787C164.04,418.112,162.908,418.446,161.908,418.365z"/>
						</g>
					</g>
					<path style="fill:#3B1502;" d="M166.742,215.971c-0.616,0.321-0.537,0.905-0.707,1.353c-0.502,1.327-0.948,2.679-1.83,3.827
						c-1.867,2.428-3.87,3.068-7.001,2.307c-0.543-0.132-1.053-0.432-1.757-0.378c0.253,0.83,0.819,1.121,1.564,1.273
						c0.655,0.133,1.352,0.133,1.946,0.501c0.538,0.333,0.574,0.712,0.055,1.046c-0.532,0.342-1.139,0.464-1.778,0.482
						c-3.752,0.106-6.451-3.053-6.95-5.306c-0.354-1.594-0.223-3.207-0.348-4.829c-1.237,2.345-2.051,4.764-0.895,7.361
						c0.584,1.312,2.043,1.629,3.245,2.195c0.179,0.084,0.422,0.034,0.609,0.108c0.527,0.208,0.561,0.593,0.206,0.947
						c-0.618,0.618-1.428,0.799-2.29,0.743c-1.546-0.101-2.752-0.853-3.775-1.919c-1.234-1.286-2.073-2.805-2.41-4.514
						c-0.279-1.412-1.186-2.044-2.476-2.367c-0.4-0.1-0.814-0.184-1.225-0.203c-2.663-0.119-4.762-1.305-6.478-3.202
						c-1.47-1.626-2.166-3.454-3.235-5.303c-0.871-1.508-2.249-2.66-3.268-4.112c-1.569-2.235-2.814-4.377-3.132-7.055
						c-0.296-2.491-0.804-5.298-2.193-7.438c-1.238-1.907-1.894-3.352-2.209-5.722c-0.388-2.916,0.017-11.115,0.667-14.054
						c1-4.523,1.332-5.976,1.834-8.824c0.699-3.965-0.142-8.55-0.833-12.5c-1.167-6.667,0.82-14.698,6.166-24.392
						c2.16-3.916,4.622-9.72,5.258-14.088c0.734-5.041,0.688-11.584,1.814-16.574c1.279-5.668,3.324-9.826,7.036-14.408
						c4.892-6.038,7.764-7.521,8.059-7.871c6.167-7.333,13.565-10.894,15.743-11.784c6.511-2.66,13.303-3.586,20.309-3.256
						c1.786,0.084,3.49-0.094,5.222-0.584c2.442-0.691,12.605-2.929,22.392,1.624c3.969,1.846,8.333,5.333,9.939,8.477
						c0.516,1.01,1.287,1.8,2.242,2.47c3.907,2.742,7.68,7.108,9.819,11.386c1.667,3.333,3.333,5.354,5.583,18.035
						c0.115,0.65,0.783,3.447,1.142,4.008c3.905,6.098,4.869,12.669,3.297,19.625c-0.456,2.018-0.995,4.02-1.572,6.009
						c-1.452,5-1.148,9.866,1.008,14.632c0.752,1.662,1.317,3.396,1.959,5.101c1.5,3.988,1.469,7.999,0.411,12.053
						c-0.396,1.517-0.736,3.04-0.926,4.597c-0.259,2.126-0.197,4.215,0.409,6.295c0.869,2.984,1.173,6.055,1.059,9.137
						c-0.125,3.379-1.49,6.359-3.593,9.03c-0.284,0.361-0.584,0.711-0.895,1.05c-1.203,1.314-1.967,2.775-2.097,4.589
						c-0.157,2.179-0.744,4.283-1.964,6.157c-0.373,0.572-0.18,1.03,0,1.564c0.623,1.848,0.854,3.72,0.458,5.663
						c-0.359,1.762-1.429,3.108-2.533,4.45c-0.154,0.188-0.403,0.32-0.633,0.427c-0.551,0.256-0.907,0.026-0.878-0.582
						c0.014-0.297,0.13-0.588,0.186-0.884c0.276-1.466-0.109-2.291-1.457-2.993c-0.501-0.261-1.041-0.466-1.584-0.631
						c-2.631-0.798-5.311-1.502-7.064-3.926c-0.249,2.118,0.165,3.986,1.583,5.588c0.101,0.114,0.239,0.196,0.346,0.305
						c0.299,0.305,0.942,0.494,0.618,1.055c-0.349,0.605-0.964,0.458-1.529,0.274c-1.245-0.405-2.167-1.198-2.793-2.293
						c-1.033-1.807-1.579-3.754-1.292-5.817c0.32-2.296,0.788-4.573,1.182-6.859c0.363-2.108-0.038-4.112-0.906-6.049
						c-0.255-0.568-0.665-1.013-1.123-1.434c-2.209-2.037-2.942-4.569-2.591-7.442c0.208-1.705,0.6-3.373,1.071-5.031
						c1.004-3.533,1.534-7.056,0.339-10.706c-0.752-2.298-1.033-4.73-1.318-7.138c-0.63-5.318,0.872-10.129,3.946-14.449
						c1.561-2.193,2.53-4.496,2.812-7.103c0.218-2.012,0.662-3.98,1.138-5.944c1.405-5.806,1.192-11.541-1.112-17.088
						c-1.433-3.45-2.963-6.871-3.966-10.479c-0.445-1.602-0.22-3.271-0.68-4.795c-0.494-1.641-2.414-3.105-3.757-4.035
						c-2.762-1.911-6.197-4.477-9.493-5.215c0.505,0.113-0.5-0.042-0.677,0.813c-1.464,7.059-5.652,12.694-10.407,17.992
						c-1.757,1.957-3.927,3.45-6.035,5.012c-2.428,1.799-4.542,3.854-5.729,6.658c-1.006,2.378-1.448,4.868-1.147,7.405
						c0.398,3.356,0.239,6.622-0.749,9.878c-1.436,4.732-0.727,9.302,1.493,13.66c1.953,3.836,2.752,7.845,1.877,12.036
						c-0.557,2.667-1.6,5.222-3.082,7.561c-0.433,0.683-0.48,1.223-0.101,1.944c1.627,3.086,2.194,6.377,1.935,9.828
						c-0.224,2.975-0.538,5.934-1.501,8.782c-0.338,0.999-1.111,1.917-1.213,2.917c-0.103,1.004,0.785,1.923,1.006,2.968
						c0.191,0.904,0.282,1.818,0.108,2.705c-0.456,2.324-0.812,4.687-1.948,6.827c-0.378,0.712-0.421,1.37-0.21,2.159
						c0.721,2.707,0.705,5.384-0.597,7.97c-0.369,0.734-0.878,1.367-1.321,2.047c-0.921,1.416-1.822,2.849-1.181,4.65
						c0.101,0.285,0.113,0.657-0.197,0.814c-0.386,0.195-0.697-0.074-0.932-0.356c-0.48-0.576-0.579-1.29-0.674-1.986
						c-0.123-0.9-0.033-1.801,0.283-2.852c-1.026,0.247-1.858,0.652-2.387,1.229c-1.205,1.312-2.487,2.593-3.365,4.153
						c-0.577,1.025-0.945,2.131-0.918,3.325c0.008,0.348,0.117,0.761-0.32,0.919c-0.458,0.165-0.832-0.109-1.062-0.449
						c-0.904-1.341-1.454-2.782-1.166-4.425c0.221-1.257,0.696-2.433,1.317-3.543c0.369-0.66,0.295-1.064-0.368-1.488
						C168.319,218.474,167.62,217.138,166.742,215.971z M242.026,189.411c0.376,0.066,0.494-0.124,0.619-0.273
						c1.124-1.344,1.551-2.925,1.746-4.612c0.279-2.421-0.084-4.833-0.023-7.25c0.008-0.318,0.072-0.728-0.489-0.897
						c-0.603,0.76-0.783,1.701-1.071,2.602C241.712,182.416,242.561,185.962,242.026,189.411z M230,198.482
						c-0.053,0.686-0.078,1.186-0.131,1.684c-0.322,2.991,1.346,4.899,3.825,6.193c1.202,0.627,2.501,1.085,3.641,2.061
						c0.037-1.118-0.379-1.763-1.235-2.24c-2.547-1.418-4.167-3.586-5.227-6.198C230.689,199.529,230.613,199.009,230,198.482z
						 M136.45,209.985c-0.098,3.315,2.923,6.234,6.178,5.945C140.209,214.169,137.832,212.558,136.45,209.985z M170.558,210.46
						c-0.42,2.665,0.284,5.638,1.567,6.902C172.903,214.702,171.769,212.574,170.558,210.46z M177.375,216.67
						c2.745-2.667,2.489-5.032-0.46-6.391C177.591,212.296,177.684,214.315,177.375,216.67z"/>
					<path style="fill:#E95151;" d="M211.922,152.683c-2.348-0.285-4.304-1.355-5.534-3.596c-0.52-0.946-0.727-2.039-1.414-2.906
						c-0.352-0.444-0.156-0.876,0.183-1.222c1.449-1.48,3.085-2.699,5.046-3.419c0.726-0.267,1.458-0.222,2.128,0.222
						c0.677,0.449,1.276,0.55,1.998-0.046c0.799-0.659,1.693-0.432,2.54,0.083c1.492,0.907,2.175,2.443,3.043,3.836
						c0.203,0.326,0.126,0.677-0.12,0.948c-1.003,1.105-1.629,2.467-2.529,3.644C215.939,151.954,214.124,152.583,211.922,152.683z
						 M209.653,146.302c2.603,0.933,4.751,0.711,6.203-0.556C213.636,145.101,211.615,145.421,209.653,146.302z"/>
					<path style="fill:#E29F71;" d="M222.676,173.562c-1.081-1.144-1.89-1.994-2.691-2.851c-0.702-0.751-1.359-1.54-1.785-2.486
						c-0.336-0.747-0.534-1.525-0.379-2.358c0.244-1.316,1.328-2.014,2.628-1.648c0.782,0.22,1.502,0.593,2.18,1.043
						c0.486,0.322,0.981,0.632,1.475,0.949c0.311-0.456,0.076-0.802-0.047-1.133c-1.739-4.68-2.358-9.62-3.366-14.469
						c-0.318-1.53-0.609-3.067-0.844-4.611c-0.153-1.008-0.262-2.039,0.139-3.033c0.548-1.356,1.723-1.643,2.829-0.696
						c0.635,0.543,0.969,1.284,1.34,2.002c2.38,4.607,4.172,9.472,6.17,14.243c1.668,3.982,3.503,7.879,5.341,11.779
						c4.296,9.118,8.676,18.193,12.012,27.734c2.972,8.499,6.234,16.891,10.232,24.972c0.655,1.324,0.79,2.672,0.622,4.081
						c-0.772,6.496-2.045,12.878-4.363,19.02c-0.575,1.524-1.362,2.933-2.303,4.256c-1.003,1.409-2.342,2.106-4.113,2.171
						c-3.785,0.139-6.502-1.512-8.411-4.69c-1.31-2.18-1.821-4.606-2.141-7.069c-0.606-4.659-0.549-9.364-0.869-14.044
						c-0.029-0.427,0.05-0.86,0.064-1.291c0.264-8.244-0.48-16.37-2.836-24.308c-0.464-1.565-1.188-2.974-2.214-4.272
						c-2.267-2.87-3.932-6.04-4.552-9.707c-0.298-1.762-1.061-3.389-1.696-5.05c-0.244-0.639-0.655-1.09-1.242-1.425
						c-1.497-0.856-2.988-1.725-4.471-2.604c-0.555-0.329-1.128-0.649-1.615-1.065c-0.946-0.809-1.155-1.877-0.66-2.913
						c0.468-0.979,1.317-1.419,2.558-1.217C220.551,173.012,221.415,173.266,222.676,173.562z"/>
					<path style="fill:#E29F71;" d="M200.496,156.738c0.68-0.502,0.73-1.124,0.915-1.66c0.879-2.548,1.666-5.124,2.362-7.729
						c0.264-0.99,0.594-1.967,1.268-2.774c0.461-0.552,0.971-1.04,1.786-0.852c0.798,0.183,1.135,0.8,1.28,1.512
						c0.304,1.493,0.308,3.012,0.112,4.511c-0.818,6.257-1.888,12.468-3.535,18.568c-0.224,0.832-0.466,1.66-0.678,2.495
						c-0.092,0.362-0.165,0.747,0.26,1.04c0.637-0.26,0.874-0.92,1.342-1.339c0.605-0.542,1.214-1.074,1.928-1.462
						c1.806-0.98,3.289-0.085,3.235,1.975c-0.025,0.974-0.301,1.914-0.571,2.848c-0.416,1.439-0.82,2.881-1.244,4.375
						c0.646-0.033,0.924-0.478,1.327-0.697c1.277-0.693,2.332-0.285,2.773,1.111c0.284,0.899,0.239,1.818,0.034,2.721
						c-0.832,3.664-2.26,7.083-4.358,10.202c-1.896,2.818-3.878,5.578-5.764,8.403c-5.514,8.258-8.604,17.299-9.021,27.276
						c-0.309,7.383-1.094,14.732-2.576,21.987c-0.226,1.104-0.555,2.199-0.949,3.256c-0.879,2.359-2.418,3.028-4.712,2.032
						c-2.71-1.177-4.998-2.989-7.04-5.081c-3.066-3.142-5.615-6.678-7.723-10.535c-1.068-1.954-1.274-3.965-0.666-6.094
						c0.327-1.144,0.691-2.274,1.23-3.331c3.016-5.913,5.336-12.137,8.128-18.15c2.366-5.096,3.414-10.524,4.047-16.071
						c0.488-4.281,0.993-8.573,2.281-12.714c0.835-2.686,2.114-5.192,3.282-7.737c1.583-3.45,2.753-7.006,3.498-10.73
						c0.841-4.201,2.392-8.165,4.375-11.959c0.399-0.763,0.805-1.53,1.385-2.179c0.503-0.564,1.124-0.872,1.877-0.6
						c0.763,0.275,1.008,0.944,1.031,1.679c0.013,0.423-0.088,0.853-0.159,1.276C201.017,153.736,200.768,155.16,200.496,156.738z"
						/>
				</g>
			</g>
			<g>
				<path style="fill:#D38240;" d="M418.613,241.481c0.672-0.803,1.859-2.665,2.297-3.303c3.909-5.693,6.435-10.327,9.527-16.509
					c1.13-2.259,2.146-4.565,2.949-6.963c0.5-1.492,1.331,0.003,2.774,0.722c4.238,2.108,6.544,3.793,8.343,8.196
					c0.794,1.943,0.561,2.94-1.002,4.303c-2.24,1.952-4.413,3.975-6.772,5.794c-4.632,3.573-9.708,6.221-15.386,7.674
					c-0.594,0.152-1.214,0.208-1.823,0.296C419.247,241.73,418.962,241.789,418.613,241.481z"/>
				<path style="fill:#E29F71;" d="M422.788,240.38c6.997-4.032,14.576-9.748,20.496-15.453c0.764,1.571,2.64,8.175,2.375,11.625
					c-0.101,1.315-1.005,7.494-1.375,8.75c-0.162,0.55-1.863,10.987-2.5,11.5c-1.532,1.234-6.387,1.175-8.216,1.96
					c-0.49,0.211-2.532,0.5-2.558-0.212c-0.053-1.433-0.32-2.836-0.609-4.237C429.187,248.446,427.076,244.545,422.788,240.38z"/>
				<g>
					<path style="fill:#E95151;" d="M521.465,339.753c0.111,10.932-0.94,21.878-1.783,32.836c-0.319,4.136-0.487,8.287-1.09,12.396
						c-1.425,9.705-3.068,19.37-6.128,28.721c-1.177,3.597-2.868,6.967-5.151,10.019c-0.934,1.248-2.063,2.077-3.617,2.51
						c-6.579,1.835-13.274,2.767-20.093,2.877c-3.178,0.051-6.358,0.152-9.534-0.086c-6.543-0.49-12.648-2.521-18.526-5.315
						c-5.326-2.532-10.221-5.768-14.934-9.29c-1.985-1.484-3.959-2.983-5.951-4.457c-1.74-1.287-3.332-2.713-4.723-4.387
						c-0.987-1.187-1.728-2.459-2.139-3.938c-2.037-7.324-3.706-14.73-4.767-22.258c-0.383-2.715-0.448-5.475-0.665-8.214
						c-0.429-5.423-1.179-10.82-1.175-16.278c0.004-7.04,0.518-14.039,2.728-20.748c2.08-6.314,3.599-12.756,4.949-19.237
						c1.174-5.638,2.175-11.317,1.751-17.15c-0.232-3.188-1.279-6.096-2.483-8.986c-0.294-0.706-0.809-1.26-1.362-1.787
						c-2.79-2.654-5.958-4.781-9.24-6.766c-1.993-1.205-4.01-2.287-6.328-2.759c-1.244-0.253-1.528-0.767-1.267-2.159
						c0.527-2.808,1.645-5.375,3.632-7.454c2.67-2.794,5.872-4.879,9.311-6.612c1.06-0.534,2.128-1.08,3.276-1.365
						c2.241-0.557,3.72-2.084,5.071-3.791c0.781-0.987,0.754-0.996,1.976-0.619c1.389,0.428,2.783,0.841,4.177,1.25
						c0.787,0.231,1.59,0.26,2.403,0.163c6.597-0.783,13.046-2.172,19.355-4.309c6.408-2.17,12.418-5.19,18.409-8.249
						c2.776-1.418,5.419-1.309,8.037,0.049c5.768,2.992,10.84,6.894,14.567,12.279c5.047,7.291,9.271,15.021,12.108,23.477
						c1.886,5.619,3.821,11.215,5.141,17.004c1.019,4.471,1.786,8.975,2.174,13.55c0.264,3.112,0.705,6.209,1.037,9.316
						C521.309,326.531,521.601,333.095,521.465,339.753z"/>
					<path style="fill:#F5B888;" d="M415.659,243.552c-1.7-0.648-3.521-1.708-5-3.667c-4.558-6.038-5.95-14.213-6.909-21.503
						c-0.89-6.768-0.2-13.479,0.767-20.19c0.771-5.352,2.073-10.557,3.813-15.664c0.717-2.106,1.694-4.104,2.778-6.035
						c6.051-9.275,11.235-13.761,11.551-13.942c0.341-0.195,2.884-2.509,3.167-2.167c0.227,0.275-5.042,6.167-7.917,15.792
						c-0.533,2.541-4.1,10.675-1,19.875c1.349,4.183,2.777,5.824,5.358,9.296c1.248,1.679,5.226,5.038,10.987,9.654
						c1.156,1.559,0.399,3.258-0.428,4.384c-0.72,0.98-3.805,5.989-4.434,7.03c-0.353,0.585-6.109,10.715-8.254,13.29
						C419.22,240.81,417.456,243.489,415.659,243.552z"/>
					<path style="fill:#3B1502;" d="M353.754,440c-7.947,0.008-15.753-1.017-23.418-3.127c-4.055-1.116-7.127-3.654-9.877-6.674
						c-3.091-3.395-4.374-7.576-5.059-11.983c-0.442-2.845-0.444-5.669,0.217-8.529c0.548-2.371,2.05-3.613,4.11-4.444
						c1.836-0.741,3.727-0.702,5.637-0.326c4.874,0.96,9.327,2.939,13.226,5.968c5.517,4.287,11.6,7.619,17.688,10.958
						c4.09,2.243,8.153,4.543,12.407,6.467c3.384,1.53,6.752,3.079,9.879,5.103c0.177,0.115,0.375,0.198,0.563,0.296
						c0.566,0.295,0.909,0.745,0.854,1.4c-0.052,0.624-0.542,0.855-1.051,1.062c-2.463,1.004-5.008,1.708-7.623,2.187
						C365.502,439.423,359.652,439.984,353.754,440z"/>
					<g>
						<path style="fill:#10A0DD;" d="M395.958,389.416c-1.18-1.795-1.607-3.668-1.738-5.629c-0.187-2.792-0.634-5.562-0.284-8.386
							c0.884-7.147,5.763-13.016,12.441-14.82c3.147-0.85,6.309-0.554,9.468-0.075c0.745,0.113,1.478,0.328,2.225,0.404
							c0.809,0.082,3.578-0.03,3.589,0.767c0.021,1.562,0.875,23.75,5.25,34.625c0.038,0.101,4,10.5,11.509,16.055
							c5.273,3.873,10.797,7.323,16.741,10.064c5.669,2.615,11.557,4.42,17.86,4.712c6.641,0.308,13.271,0.225,19.842-0.778
							c3.397-0.518,6.785-1.235,10.06-2.358c0.537-0.184,1.219-0.58,1.647-0.05c0.409,0.506-0.028,1.133-0.313,1.644
							c-1.706,3.065-4.158,5.484-6.779,7.748c-4.362,3.768-9.337,6.583-14.498,9.054c-2.965,1.419-6.191,2.188-9.362,3.054
							c-7.473,2.041-15.133,2.932-22.828,3.444c-5.17,0.345-10.35-0.112-15.505-0.577c-7.31-0.659-14.563-1.79-21.679-3.576
							c-6.165-1.547-12.25-3.415-18.369-5.147c-2.695-0.763-5.375-1.584-8.083-2.297c-3.555-0.936-6.96-2.244-10.256-3.864
							c-6.093-2.995-12.276-5.818-18.273-8.993c-5.283-2.796-10.369-5.964-15.526-8.995c-0.832-0.489-1.627-1.068-2.358-1.7
							c-2.897-2.502-5.778-5.023-8.632-7.574c-2.28-2.039-3.943-4.544-5.367-7.235c-1.712-3.236-1.315-6.326,0.458-9.378
							c2.181-3.755,5.402-6.374,9.105-8.507c4.181-2.408,8.734-3.327,13.481-3.468c6.801-0.202,13.409,0.991,19.935,2.798
							c8.376,2.32,16.462,5.453,24.534,8.633C394.74,389.203,395.199,389.528,395.958,389.416z"/>
						<path style="fill:#006EA9;" d="M435.159,409.927c-1.04-0.526-3.671-1.896-4.553-2.376
							c-9.212-5.023-18.648-9.569-28.416-13.417c-2.162-0.852-3.406-1.956-4.031-1.956c-2.75-1.625-3.427-3.122-3.5-4.75
							c-0.04-0.896-0.285-1.904,0.471-1.63c2.761,1,5.606,1.035,8.5,1.057c6.94,0.053,13.454,1.942,19.661,4.973
							c0.152,0.074,0.293,0.169,0.445,0.242c1.648,0.793,2.788,1.927,3.258,3.818c1.079,4.339,3.014,6.743,5.665,10.291
							C432.859,406.445,435.219,409.537,435.159,409.927z"/>
					</g>
					<path style="fill:#FFFFFF;" d="M384.859,328.953c-0.287-6.819,0.429-13.664,1.628-20.48c0.288-1.637,0.987-2.666,2.578-3.222
						c2.224-0.778,4.457-1.519,6.763-1.99c0.847-0.173,1.134-0.531,1.24-1.389c1.006-8.175,3.406-15.923,7.235-23.226
						c1.281-2.443,2.944-4.615,4.715-6.704c0.968-1.142,2.256-1.915,3.616-2.511c1.166-0.511,2.339-0.305,3.513,0.138
						c2.987,1.126,5.195,3.205,7.04,5.712c1.17,1.59,2.161,3.299,2.869,5.153c1.99,5.212,4.136,10.368,5.266,15.871
						c0.959,4.671,1.744,9.359,2.03,14.128c0.194,3.24-0.145,6.46-0.323,9.68c-0.328,5.959-0.871,11.903-2.189,17.746
						c-0.495,2.194-1.067,4.358-2.02,6.407c-1.542,3.315-3.907,5.749-7.339,7.149c-5.523,2.252-10.953,4.729-16.529,6.855
						c-2.161,0.824-4.374,1.421-6.661,1.739c-1.142,0.159-2.294,0.212-3.439,0.029c-2.28-0.365-3.863-1.558-4.811-3.734
						c-2.853-6.553-4.346-13.418-4.894-20.511C384.974,333.552,384.809,331.312,384.859,328.953z"/>
					<path style="fill:#E29F71;" d="M408.85,249.797c1.399-1.129,2.998-1.98,3.504-3.964c0.299-1.171,1.033-2.198,1.811-3.149
						c0.414-0.505,0.879-0.781,1.582-0.647c0.541,0.103,1.111,0.062,1.667,0.081c0.866,0.03,1.128,0.23,0.993,1.101
						c-0.558,3.603-0.734,7.252-1.778,10.799c-0.928,3.154-2.281,6.064-3.883,8.897c-1.75,3.096-3.287,6.299-4.687,9.568
						c-0.28,0.654-0.58,1.294-1.002,1.875c-4.631,6.381-7.649,13.474-9.386,21.144c-0.516,2.281-0.997,4.563-1.154,6.9
						c-0.036,0.533-0.214,0.813-0.76,0.948c-2.013,0.497-4.073,0.812-5.874,1.593c-0.445-0.255-0.412-0.522-0.347-0.758
						c1.618-5.896,1.923-12.031,3.23-17.974c1.145-5.203,1.2-10.474,1.574-15.731c0.307-4.304,0.331-8.628,0.806-12.92
						c0.492-4.446,1.419-8.817,2.344-13.188c0.819-3.871,1.665-7.736,2.464-11.611c0.173-0.841,0.18-1.715,0.287-2.571
						c0.115-0.917,1.808-2.931,2.619-3.141c0.401-0.104,1.818-0.679,2.047-0.37c0.281,0.379,0.44,1.68,0.5,2.125
						c0.292,2.158-0.625,1.875,1.072,5.868c0.697,1.492,1.09,3.047,1.358,4.654c0.494,2.965,0.606,5.957,0.699,8.952
						C408.553,248.756,408.384,249.289,408.85,249.797z"/>
					<g>
						<path style="fill:#D38240;" d="M427.028,218.014c-0.114,2.15-0.235,3.751-0.762,5.285c-0.474,1.38-1.208,2.592-2.443,3.42
							c-0.915,0.613-1.918,0.947-3.038,0.636c-0.619-0.172-1.079-0.529-1.149-1.206c-0.071-0.682,0.281-1.223,0.907-1.362
							c2.188-0.485,2.856-2.15,3.213-4.036c0.446-2.354,0.449-4.728,0.069-7.092c-0.122-0.758-0.344-1.51-0.733-2.187
							c-0.762-1.324-1.451-1.48-2.702-0.63c-0.147,0.1-0.273,0.229-0.418,0.331c-0.205,0.145-0.435,0.205-0.648,0.036
							c-0.205-0.164-0.221-0.413-0.19-0.653c0.197-1.533,2.081-2.678,3.677-2.221c0.823,0.236,1.483,0.731,2.034,1.381
							c0.627,0.739,1.024,1.6,1.303,2.514C426.779,214.293,426.983,216.414,427.028,218.014z"/>
						<path style="fill:#D38240;" d="M420.38,222.876c0.308-2.063,0.397-4.11,0.332-6.166c-0.008-0.236,0.096-0.498,0.355-0.55
							c0.243-0.049,0.427,0.115,0.558,0.334c0.341,0.569,0.51,1.197,0.595,1.841C422.414,219.792,421.636,221.885,420.38,222.876z"
							/>
					</g>
					<g>
						<path style="fill:#723306;" d="M424.11,261.61c3.022-7.717,4.34-15.687,4.018-24.01c-0.356,0.347-0.713,0.693-1.068,1.041
							c-0.527,0.518-1.074,1.022-1.76,1.341c-0.788,0.366-1.381,0.032-1.466-0.799c-0.053-0.523,0.128-1.016,0.266-1.511
							c1.248-4.471,2.219-8.993,2.735-13.596c0.304-2.709,0.446-5.419-0.065-8.131c-0.411-2.184-1.541-4.034-2.827-5.819
							c-0.397-0.551-0.922-1.007-1.531-1.355c-0.508-0.29-1-0.618-1.54-0.841c-4.24-1.754-7.313-4.645-9.317-8.593
							c-0.117-0.231-0.29-0.439-0.386-0.676c-0.319-0.788-0.854-1.046-1.762-0.922c-1.549,0.21-3.122,0.177-4.682,0.05
							c-2.212-0.179-2.746-0.633-2.921-2.717c-0.211-2.513,1.355-11.015,3.691-17.326c5.419-11.184,14.185-18.78,26.847-21.754
							c10.34-2.428,20.279-1.158,29.735,3.741c9.226,4.78,15.833,13.323,19.479,21.039c4.515,10.341,6.553,21.124,6.659,32.277
							c-0.805,20.007-3.05,29.309-3.548,31.777c-0.134,0.664-0.52,1.115-1.006,1.524c-0.917,2.04-4.457,4.792-5.805,5.158
							c-0.856,0.233-1.522,0.674-2.133,1.296c-1.731,1.764-3.836,2.972-6.303,3.58c-0.991,0.244-1.973,0.555-2.981,0.692
							c-1.571,0.213-3.031,0.524-4.105,1.793c-0.445,0.526-1.202,0.668-1.883,0.828c-3.175,0.746-6.38,0.971-9.621,0.453
							c-0.534-0.085-1.03-0.142-1.57,0.097c-2.497,1.106-5.086,1.189-7.728,0.539c-0.677-0.167-1.371-0.275-2.047-0.445
							c-1.007-0.253-1.938-0.271-2.978,0.097c-1.559,0.551-3.212,0.307-4.772-0.148c-1.21-0.353-2.288-0.322-3.415,0.264
							c-0.797,0.414-1.688,0.673-2.555,0.951C425.275,261.661,424.762,261.899,424.11,261.61z"/>
					</g>
				</g>
			</g>
		</g>
	</g>
</g>
</svg>
